<svg width="512" height="512" viewBox="0 0 512 512" fill="none" xmlns="http://www.w3.org/2000/svg">
  <title>Andres Fajardo Station 04 mark</title>
  <defs>
    <radialGradient id="lamp" cx="50%" cy="42%" r="62%">
      <stop offset="0" stop-color="#f0c56e"/>
      <stop offset="0.34" stop-color="#c8953e"/>
      <stop offset="1" stop-color="#14100d"/>
    </radialGradient>
    <radialGradient id="well" cx="50%" cy="52%" r="52%">
      <stop offset="0" stop-color="#2a1f15"/>
      <stop offset="0.62" stop-color="#110d0a"/>
      <stop offset="1" stop-color="#090706"/>
    </radialGradient>
    <filter id="grain" x="-20%" y="-20%" width="140%" height="140%">
      <feTurbulence type="fractalNoise" baseFrequency="0.82" numOctaves="3" seed="4"/>
      <feColorMatrix type="saturate" values="0"/>
      <feComponentTransfer>
        <feFuncA type="table" tableValues="0 0.1"/>
      </feComponentTransfer>
      <feBlend mode="soft-light" in2="SourceGraphic"/>
    </filter>
  </defs>

  <rect width="512" height="512" rx="88" fill="#0f0b08"/>
  <rect x="18" y="18" width="476" height="476" rx="72" fill="url(#well)"/>
  <g opacity="0.28">
    <path d="M256 36 447 146v220L256 476 65 366V146L256 36Z" stroke="#e2bb6f" stroke-width="7"/>
    <path d="M256 83 406 170v172L256 429 106 342V170L256 83Z" stroke="#765a31" stroke-width="3"/>
    <path d="M256 129 366 193v126L256 383 146 319V193L256 129Z" stroke="#e2bb6f" stroke-width="2"/>
  </g>

  <g filter="url(#grain)">
    <circle cx="256" cy="256" r="116" fill="url(#lamp)" opacity="0.94"/>
    <circle cx="256" cy="256" r="82" fill="#0c0907"/>
    <path d="M256 171 329 213v86l-73 42-73-42v-86l73-42Z" fill="#18110b" stroke="#f0c56e" stroke-width="8" stroke-linejoin="round"/>
    <path d="M256 210 295 233v46l-39 23-39-23v-46l39-23Z" fill="#d6a852"/>
    <path d="M256 225 282 240v31l-26 16-26-16v-31l26-15Z" fill="#15100c"/>
  </g>

  <g opacity="0.72" stroke="#d7ad62" stroke-linecap="round">
    <path d="M92 256h62" stroke-width="8"/>
    <path d="M358 256h62" stroke-width="8"/>
    <path d="m174 116 31 54" stroke-width="6"/>
    <path d="m338 116-31 54" stroke-width="6"/>
    <path d="m174 396 31-54" stroke-width="6"/>
    <path d="m338 396-31-54" stroke-width="6"/>
  </g>

  <g font-family="'Azeret Mono', 'Courier New', monospace" font-weight="700" text-anchor="middle">
    <text x="256" y="471" fill="#917852" font-size="29" letter-spacing="8">04</text>
    <text x="256" y="72" fill="#917852" font-size="20" letter-spacing="5">314</text>
  </g>
</svg>
