<svg width="1200" height="630" viewBox="0 0 1200 630" fill="none" xmlns="http://www.w3.org/2000/svg">
  <defs>
    <radialGradient id="beam" cx="70%" cy="44%" r="55%">
      <stop offset="0" stop-color="#c99a49" stop-opacity="0.38"/>
      <stop offset="0.42" stop-color="#5a3f20" stop-opacity="0.28"/>
      <stop offset="1" stop-color="#100b08" stop-opacity="0"/>
    </radialGradient>
    <linearGradient id="veil" x1="0" y1="0" x2="1200" y2="630" gradientUnits="userSpaceOnUse">
      <stop stop-color="#120d09"/>
      <stop offset="0.58" stop-color="#15100c"/>
      <stop offset="1" stop-color="#4a3620"/>
    </linearGradient>
    <filter id="rough" x="-10%" y="-10%" width="120%" height="120%">
      <feTurbulence type="fractalNoise" baseFrequency="0.72" numOctaves="3" seed="42"/>
      <feColorMatrix type="saturate" values="0"/>
      <feComponentTransfer>
        <feFuncA type="table" tableValues="0 0.12"/>
      </feComponentTransfer>
      <feBlend mode="soft-light" in2="SourceGraphic"/>
    </filter>
    <pattern id="scan" width="1" height="6" patternUnits="userSpaceOnUse">
      <rect width="1" height="4" fill="transparent"/>
      <rect y="4" width="1" height="1" fill="#000" opacity="0.18"/>
    </pattern>
  </defs>

  <rect width="1200" height="630" fill="url(#veil)"/>
  <rect width="1200" height="630" fill="url(#beam)"/>
  <rect width="1200" height="630" fill="url(#scan)"/>
  <g filter="url(#rough)">
    <path d="M905 74 1100 187v225L905 525 710 412V187L905 74Z" stroke="#d4aa5d" stroke-width="3" opacity="0.25"/>
    <path d="M905 132 1050 216v168L905 468 760 384V216L905 132Z" stroke="#d4aa5d" stroke-width="1.5" opacity="0.18"/>
    <path d="M905 204 988 252v96l-83 48-83-48v-96l83-48Z" fill="#0e0a07" stroke="#d4aa5d" stroke-width="8"/>
    <path d="M905 237 959 268v62l-54 32-54-32v-62l54-31Z" fill="#d4aa5d"/>
    <path d="M905 259 938 278v38l-33 19-33-19v-38l33-19Z" fill="#130e0a"/>
  </g>

  <g font-family="'Azeret Mono', 'Courier New', monospace" fill="#8c7a63" text-transform="uppercase">
    <text x="92" y="112" font-size="21" letter-spacing="9">Station 04 - The Architect</text>
    <text x="92" y="538" font-size="18" letter-spacing="7">Seq - 04 08 15 16 23 42</text>
  </g>

  <path d="M92 151h74" stroke="#8c7a63" stroke-width="2"/>
  <g font-family="'Chakra Petch', 'Arial Narrow', sans-serif" font-weight="700" fill="#eee3cf">
    <text x="88" y="300" font-size="112" letter-spacing="-3">ANDRES</text>
    <text x="88" y="402" font-size="112" letter-spacing="-3">FAJARDO</text>
  </g>
  <text x="94" y="456" fill="#b79a68" font-family="'Azeret Mono', 'Courier New', monospace" font-size="22" letter-spacing="8">FOUNDER - CPO - INVESTOR - ADVISOR</text>
  <rect x="42" y="42" width="1116" height="546" stroke="#5a4a34" stroke-width="1" opacity="0.6"/>
</svg>
